<svg width="26" height="35" viewBox="0 0 26 35" fill="none" xmlns="http://www.w3.org/2000/svg">
<path d="M5.76949 27.189C5.43634 26.9517 1.63502 24.1993 1.24131 21.8776C1.17972 21.5144 1.43957 21.1999 1.78574 21.0739L19.6703 14.5645C20.1032 14.4069 20.5964 14.5721 20.7801 14.9946C21.936 17.6536 20.7489 20.6537 20.282 21.6513C20.1741 21.8819 20.0969 22.1204 20.059 22.3722C19.8336 23.8711 18.8189 29.3644 15.9311 30.4154C12.6979 31.5922 6.26596 27.5101 5.81752 27.2215C5.79966 27.21 5.7868 27.2013 5.76949 27.189Z" fill="#3C424C"/>
<path d="M2.4525 27.53C2.00218 26.2672 1.19175 23.7373 1.18901 21.8786C1.18847 21.5102 1.43907 21.2001 1.78524 21.0741L19.6698 14.5647C20.1027 14.4071 20.589 14.5741 20.8168 14.9745C22.1363 17.294 22.7879 19.4347 23.0349 20.3782C23.1218 20.7099 23.1009 21.0538 22.9668 21.3695C22.3495 22.8222 20.1582 27.1519 15.3762 28.8924C10.7705 30.5687 5.49752 29.2114 3.53525 28.5869C3.02494 28.4244 2.63238 28.0344 2.4525 27.53Z" fill="#515761"/>
<path d="M2.46145 27.6917C1.91823 26.4486 0.806002 23.6143 1.02689 21.6951L20.8284 14.4879C22.6534 17.435 23.0664 20.1085 23.1421 20.7432C23.1534 20.8381 23.1539 20.9334 23.1319 21.0264C22.9787 21.6739 21.9145 24.4426 14.7111 27.0644C8.45042 29.3431 4.78845 28.8771 3.39625 28.5245C2.96552 28.4154 2.63938 28.0988 2.46145 27.6917Z" fill="#6C737F"/>
<ellipse cx="10.9279" cy="18.0914" rx="10.5363" ry="2.26936" transform="rotate(-20 10.9279 18.0914)" fill="#D3D6D9"/>
<path d="M2.77544 5.73426L5.31282 18.8361C5.41645 19.3712 5.84354 19.7822 6.38764 19.8141C7.59544 19.8849 9.85134 19.8633 12.1327 19.0329C14.5155 18.1656 15.4838 16.7666 15.8443 16.0305C15.993 15.7271 15.941 15.379 15.7693 15.088L8.92612 3.48876C8.86781 3.38991 8.76163 3.32936 8.64691 3.33261C8.13716 3.34707 6.67696 3.42362 5.56382 3.82877C4.45454 4.23251 3.291 5.10778 2.8873 5.42715C2.79492 5.50023 2.75305 5.61861 2.77544 5.73426Z" fill="#6C737F"/>
<ellipse cx="5.84121" cy="4.5903" rx="3.24194" ry="0.810486" transform="rotate(-20 5.84121 4.5903)" fill="#D3D6D9"/>
<path fill-rule="evenodd" clip-rule="evenodd" d="M4.87208 4.77052L3.87415 2.02874C3.69043 1.52399 3.95068 0.965878 4.45543 0.782164C4.96018 0.59845 5.51829 0.858701 5.70201 1.36345L6.69993 4.10524C6.69993 4.10524 6.81082 4.40988 5.89689 4.74252C4.98296 5.07517 4.87208 4.77052 4.87208 4.77052ZM5.00969 2.30546C5.17794 2.24422 5.23987 1.98999 5.14801 1.73761C5.05616 1.48524 4.8453 1.33029 4.67705 1.39153C4.5088 1.45277 4.44687 1.707 4.53873 1.95938C4.63058 2.21175 4.84144 2.3667 5.00969 2.30546Z" fill="#3C424C"/>
</svg>
