<svg width="90" height="35" viewBox="0 0 90 35" fill="none" xmlns="http://www.w3.org/2000/svg">
<path d="M43.208 15.456C45.872 14.808 46.832 13.32 46.832 11.496C46.832 8.88 44.84 7.2 41.432 7.2H33.92V24H42.248C45.296 24 47.336 22.248 47.336 19.272C47.336 17.664 46.496 15.936 43.208 15.456ZM37.664 10.536H40.928C42.056 10.536 42.872 11.04 42.872 12.144C42.872 13.392 42.272 13.992 41.072 13.992H37.664V10.536ZM41.312 20.664H37.664V17.088H41.168C42.488 17.088 43.376 17.64 43.376 18.792C43.376 20.088 42.68 20.664 41.312 20.664ZM57.1576 12V17.832C57.1576 19.992 56.2456 20.928 54.8056 20.928C53.4616 20.928 52.7896 20.256 52.7896 18.792V12H49.1416V19.008C49.1416 22.536 50.5096 24.24 53.3656 24.24C55.3336 24.24 56.5816 23.256 57.1576 21.288V24H60.8056V12H57.1576ZM69.2694 11.76C65.7174 11.76 62.7414 14.136 62.7414 18.024C62.7414 21.888 65.7174 24.24 69.2694 24.24C72.8214 24.24 75.7974 21.888 75.7974 18.024C75.7974 14.136 72.8214 11.76 69.2694 11.76ZM69.2694 20.928C67.3014 20.928 66.3894 19.992 66.3894 18.024C66.3894 16.008 67.3014 15.072 69.2694 15.072C71.2374 15.072 72.1494 16.008 72.1494 18.024C72.1494 19.992 71.2374 20.928 69.2694 20.928ZM85.1382 12L83.0742 18.672L82.4262 21.096L81.8262 18.672L79.8582 12H75.9222L80.5782 24.888H76.8822V28.08H79.2822C82.2582 28.08 83.5302 26.976 84.2742 24.96L89.0743 12H85.1382Z" fill="#111827"/>
<path d="M6.13009 27.1886C5.79693 26.9513 1.99562 24.199 1.60191 21.8773C1.54031 21.5141 1.80016 21.1995 2.14633 21.0736L20.0308 14.5641C20.4638 14.4066 20.957 14.5717 21.1407 14.9942C22.2966 17.6532 21.1095 20.6533 20.6426 21.651C20.5347 21.8815 20.4575 22.1201 20.4196 22.3718C20.1942 23.8707 19.1795 29.364 16.2917 30.4151C13.0585 31.5919 6.62656 27.5097 6.17812 27.2211C6.16025 27.2096 6.1474 27.201 6.13009 27.1886Z" fill="#010000"/>
<path d="M2.81298 27.5297C2.36265 26.2669 1.55222 23.737 1.54949 21.8783C1.54894 21.5099 1.79954 21.1998 2.14571 21.0738L20.0302 14.5644C20.4631 14.4068 20.9495 14.5738 21.1773 14.9742C22.4968 17.2937 23.1484 19.4344 23.3954 20.3779C23.4822 20.7096 23.4614 21.0535 23.3273 21.3692C22.7099 22.8219 20.5187 27.1516 15.7367 28.8921C11.1309 30.5684 5.85799 29.2111 3.89572 28.5866C3.38542 28.4241 2.99286 28.0341 2.81298 27.5297Z" fill="#BE231D"/>
<path d="M2.82205 27.6913C2.27882 26.4483 1.1666 23.614 1.38748 21.6947L21.189 14.4875C23.014 17.4346 23.427 20.1081 23.5027 20.7428C23.514 20.8377 23.5145 20.933 23.4925 21.026C23.3393 21.6735 22.2751 24.4422 15.0717 27.0641C8.81101 29.3428 5.14905 28.8768 3.75685 28.5242C3.32612 28.4151 2.99998 28.0985 2.82205 27.6913Z" fill="#DF5B53"/>
<ellipse cx="11.2885" cy="18.0911" rx="10.5363" ry="2.26936" transform="rotate(-20 11.2885 18.0911)" fill="#E98F81"/>
<path d="M3.13592 5.73389L5.67329 18.8358C5.77692 19.3709 6.20401 19.7818 6.74812 19.8137C7.95591 19.8845 10.2118 19.8629 12.4932 19.0326C14.876 18.1653 15.8442 16.7662 16.2048 16.0302C16.3535 15.7267 16.3014 15.3786 16.1298 15.0876L9.2866 3.48839C9.22828 3.38955 9.1221 3.32899 9.00738 3.33225C8.49764 3.34671 7.03743 3.42325 5.92429 3.8284C4.81502 4.23215 3.65147 5.10742 3.24778 5.42678C3.15539 5.49987 3.11352 5.61824 3.13592 5.73389Z" fill="#DF5B53"/>
<ellipse cx="6.20175" cy="4.58993" rx="3.24194" ry="0.810486" transform="rotate(-20 6.20175 4.58993)" fill="#E98F81"/>
<path fill-rule="evenodd" clip-rule="evenodd" d="M5.23255 4.77016L4.23462 2.02837C4.05091 1.52362 4.31116 0.965512 4.81591 0.781798C5.32066 0.598084 5.87877 0.858335 6.06248 1.36308L7.06041 4.10487C7.06041 4.10487 7.17129 4.40951 6.25736 4.74216C5.34343 5.0748 5.23255 4.77016 5.23255 4.77016ZM5.37017 2.30509C5.53842 2.24385 5.60034 1.98962 5.50849 1.73725C5.41663 1.48487 5.20577 1.32993 5.03752 1.39116C4.86927 1.4524 4.80734 1.70663 4.8992 1.95901C4.99106 2.21138 5.20192 2.36633 5.37017 2.30509Z" fill="#030102"/>
</svg>
