<svg width="612" height="552" viewBox="0 0 612 552" fill="none" xmlns="http://www.w3.org/2000/svg">
<path d="M549.044 17L595.044 483L524.044 262L532.044 536C450.044 446.333 285.844 285.8 45.0444 361" stroke="url(#paint0_linear)" stroke-width="32" stroke-linecap="round" stroke-linejoin="round"/>
<path d="M549.044 17L593.202 464.334C593.437 466.72 590.041 467.425 589.307 465.143L528.359 275.431C527.651 273.227 524.389 273.787 524.456 276.101L531.887 530.62C531.941 532.473 529.713 533.454 528.457 532.09C445.308 441.767 282.383 286.881 45.0444 361" stroke="#111827" stroke-width="3" stroke-linecap="round" stroke-linejoin="round"/>
<circle cx="526.044" cy="273" r="4.5" fill="white" stroke="black" stroke-width="3"/>
<circle cx="591.044" cy="464" r="4.5" fill="white" stroke="black" stroke-width="3"/>
<circle cx="46.0444" cy="361" r="4.5" fill="white" stroke="black" stroke-width="3"/>
<circle cx="530.044" cy="531" r="4.5" fill="white" stroke="black" stroke-width="3"/>
<path d="M16.0302 413.95L9.20886 410.012C8.83212 409.794 8.70304 409.313 8.92055 408.936L12.874 402.088C13.0832 401.726 12.959 401.263 12.5968 401.054C8.24987 398.544 6.75718 392.992 9.26687 388.645L9.45197 388.324C14.178 380.138 37.234 369.348 37.234 369.348C37.234 369.348 39.076 394.513 34.35 402.699L33.9847 403.332C31.5754 407.505 26.2411 408.931 22.068 406.522C21.7203 406.321 21.2756 406.44 21.0748 406.788L17.1062 413.662C16.8887 414.039 16.407 414.168 16.0302 413.95Z" stroke="black" stroke-width="3.15066" stroke-linecap="round" stroke-linejoin="round"/>
<path d="M37.2341 369.348L25.0253 390.494" stroke="black" stroke-width="3.15066"/>
<circle cx="23.8439" cy="392.54" r="3.93832" transform="rotate(30 23.8439 392.54)" fill="black"/>
<defs>
<linearGradient id="paint0_linear" x1="-43.9556" y1="241" x2="626.044" y2="316" gradientUnits="userSpaceOnUse">
<stop stop-color="#F06A46"/>
<stop offset="0.421875" stop-color="#CE88BF"/>
<stop offset="1" stop-color="#5C62D6"/>
</linearGradient>
</defs>
</svg>
